<svg id="visual" viewBox="0 0 900 450" width="900" height="450" xmlns="http://www.w3.org/2000/svg" xmlns:xlink="http://www.w3.org/1999/xlink" version="1.1"><rect x="0" y="0" width="900" height="450" fill="#F8BC19"></rect><defs><linearGradient id="grad1_0" x1="50%" y1="0%" x2="100%" y2="100%"><stop offset="10%" stop-color="#fccd4c" stop-opacity="1"></stop><stop offset="90%" stop-color="#fccd4c" stop-opacity="1"></stop></linearGradient></defs><defs><linearGradient id="grad1_1" x1="50%" y1="0%" x2="100%" y2="100%"><stop offset="10%" stop-color="#fccd4c" stop-opacity="1"></stop><stop offset="90%" stop-color="#fac536" stop-opacity="1"></stop></linearGradient></defs><defs><linearGradient id="grad1_2" x1="50%" y1="0%" x2="100%" y2="100%"><stop offset="10%" stop-color="#f8bc19" stop-opacity="1"></stop><stop offset="90%" stop-color="#fac536" stop-opacity="1"></stop></linearGradient></defs><defs><linearGradient id="grad2_0" x1="0%" y1="0%" x2="50%" y2="100%"><stop offset="10%" stop-color="#fccd4c" stop-opacity="1"></stop><stop offset="90%" stop-color="#fccd4c" stop-opacity="1"></stop></linearGradient></defs><defs><linearGradient id="grad2_1" x1="0%" y1="0%" x2="50%" y2="100%"><stop offset="10%" stop-color="#fac536" stop-opacity="1"></stop><stop offset="90%" stop-color="#fccd4c" stop-opacity="1"></stop></linearGradient></defs><defs><linearGradient id="grad2_2" x1="0%" y1="0%" x2="50%" y2="100%"><stop offset="10%" stop-color="#fac536" stop-opacity="1"></stop><stop offset="90%" stop-color="#f8bc19" stop-opacity="1"></stop></linearGradient></defs><g transform="translate(900, 0)"><path d="M0 292.5C-30.4 272.7 -60.7 252.9 -100.6 243C-140.6 233.1 -190.1 233 -206.8 206.8C-223.5 180.7 -207.4 128.4 -216.2 89.5C-225 50.7 -258.7 25.4 -292.5 0L0 0Z" fill="#f9c029"></path><path d="M0 195C-20.2 181.8 -40.5 168.6 -67.1 162C-93.7 155.4 -126.8 155.3 -137.9 137.9C-149 120.4 -138.3 85.6 -144.1 59.7C-150 33.8 -172.5 16.9 -195 0L0 0Z" fill="#fbc941"></path><path d="M0 97.5C-10.1 90.9 -20.2 84.3 -33.5 81C-46.9 77.7 -63.4 77.7 -68.9 68.9C-74.5 60.2 -69.1 42.8 -72.1 29.8C-75 16.9 -86.2 8.5 -97.5 0L0 0Z" fill="#fccd4c"></path></g><g transform="translate(0, 450)"><path d="M0 -292.5C32.8 -267.9 65.5 -243.3 92.6 -223.6C119.7 -203.8 141 -189 173.2 -173.2C205.5 -157.5 248.5 -140.9 270.2 -111.9C291.9 -82.9 292.2 -41.5 292.5 0L0 0Z" fill="#f9c029"></path><path d="M0 -195C21.8 -178.6 43.7 -162.2 61.7 -149.1C79.8 -135.9 94 -126 115.5 -115.5C137 -105 165.7 -94 180.2 -74.6C194.6 -55.3 194.8 -27.6 195 0L0 0Z" fill="#fbc941"></path><path d="M0 -97.5C10.9 -89.3 21.8 -81.1 30.9 -74.5C39.9 -67.9 47 -63 57.7 -57.7C68.5 -52.5 82.8 -47 90.1 -37.3C97.3 -27.6 97.4 -13.8 97.5 0L0 0Z" fill="#fccd4c"></path></g></svg>